<?xml version="1.0" encoding="UTF-8"?>
<svg width="240px" height="60px" viewBox="0 0 240 60" version="1.1" xmlns="http://www.w3.org/2000/svg" xmlns:xlink="http://www.w3.org/1999/xlink">
    <title>Window World LA Logo</title>
    <defs>
        <linearGradient x1="0%" y1="50%" x2="100%" y2="50%" id="linearGradient-1">
            <stop stop-color="#003366" offset="0%"></stop>
            <stop stop-color="#004B8D" offset="100%"></stop>
        </linearGradient>
    </defs>
    <g id="Logo" stroke="none" stroke-width="1" fill="none" fill-rule="evenodd">
        <rect id="Background" fill="url(#linearGradient-1)" x="0" y="0" width="240" height="60" rx="4"></rect>
        <g id="Logo-Text" transform="translate(15.000000, 15.000000)">
            <path d="M13.5,0 L16.5,0 L20,30 L17,30 L16,24 L14,24 L13,30 L10,30 L13.5,0 Z M15.75,6 L14.25,6 L14,21 L16,21 L15.75,6 Z" id="W" fill="#FFFFFF" fill-rule="nonzero"></path>
            <path d="M23,0 L26,0 L26,30 L23,30 L23,0 Z" id="I" fill="#FFFFFF" fill-rule="nonzero"></path>
            <path d="M30,0 L33,0 L37,15 L37,0 L40,0 L40,30 L37,30 L33,15 L33,30 L30,30 L30,0 Z" id="N" fill="#FFFFFF" fill-rule="nonzero"></path>
            <path d="M43,0 L53,0 C55.209139,0 57,1.790861 57,4 L57,26 C57,28.209139 55.209139,30 53,30 L43,30 L43,0 Z M46,3 L46,27 L53,27 C53.5522847,27 54,26.5522847 54,26 L54,4 C54,3.44771525 53.5522847,3 53,3 L46,3 Z" id="D" fill="#FFFFFF" fill-rule="nonzero"></path>
            <path d="M60,0 L70,0 C72.209139,0 74,1.790861 74,4 L74,26 C74,28.209139 72.209139,30 70,30 L60,30 L60,0 Z M63,3 L63,27 L70,27 C70.5522847,27 71,26.5522847 71,26 L71,4 C71,3.44771525 70.5522847,3 70,3 L63,3 Z" id="O" fill="#FFFFFF" fill-rule="nonzero"></path>
            <path d="M77.5,0 L80.5,0 L84,30 L81,30 L80,24 L78,24 L77,30 L74,30 L77.5,0 Z M79.75,6 L78.25,6 L78,21 L80,21 L79.75,6 Z" id="W-2" fill="#FFFFFF" fill-rule="nonzero"></path>

            <path d="M97.5,0 L100.5,0 L104,30 L101,30 L100,24 L98,24 L97,30 L94,30 L97.5,0 Z M99.75,6 L98.25,6 L98,21 L100,21 L99.75,6 Z" id="W-3" fill="#FFFFFF" fill-rule="nonzero"></path>
            <path d="M107,0 L117,0 C119.209139,0 121,1.790861 121,4 L121,26 C121,28.209139 119.209139,30 117,30 L107,30 L107,0 Z M110,3 L110,27 L117,27 C117.552285,27 118,26.5522847 118,26 L118,4 C118,3.44771525 117.552285,3 117,3 L110,3 Z" id="O-2" fill="#FFFFFF" fill-rule="nonzero"></path>
            <path d="M124,0 L134,0 C136.209139,0 138,1.790861 138,4 L138,13 C138,15.209139 136.209139,17 134,17 L127,17 L127,30 L124,30 L124,0 Z M127,3 L127,14 L134,14 C134.552285,14 135,13.5522847 135,13 L135,4 C135,3.44771525 134.552285,3 134,3 L127,3 Z" id="R" fill="#FFFFFF" fill-rule="nonzero"></path>
            <path d="M141,0 L144,0 L144,27 L154,27 L154,30 L141,30 L141,0 Z" id="L" fill="#FFFFFF" fill-rule="nonzero"></path>
            <path d="M157,0 L167,0 C169.209139,0 171,1.790861 171,4 L171,26 C171,28.209139 169.209139,30 167,30 L157,30 L157,0 Z M160,3 L160,27 L167,27 C167.552285,27 168,26.5522847 168,26 L168,4 C168,3.44771525 167.552285,3 167,3 L160,3 Z" id="D-2" fill="#FFFFFF" fill-rule="nonzero"></path>

            <path d="M180,0 L183,0 L183,27 L193,27 L193,30 L180,30 L180,0 Z" id="L-2" fill="#FFFFFF" fill-rule="nonzero"></path>
            <path d="M196,0 L206,0 L206,3 L199,3 L199,13.5 L205,13.5 L205,16.5 L199,16.5 L199,27 L206,27 L206,30 L196,30 L196,0 Z" id="A" fill="#FFFFFF" fill-rule="nonzero"></path>
        </g>
        <rect id="Border" stroke="#FFFFFF" stroke-width="2" x="1" y="1" width="238" height="58" rx="3"></rect>
    </g>
</svg>
